<svg width="40" height="40" viewBox="0 0 40 40" fill="none" xmlns="http://www.w3.org/2000/svg">
<g clip-path="url(#clip0_22_10)">
<path d="M37.6124 23.2504C36.2495 21.8753 34.4482 21.0379 32.5363 20.861C34.1868 19.3761 35.2282 17.2324 35.2282 14.8377C35.2282 10.3578 31.5978 6.72742 27.117 6.72742C22.8374 6.72742 19.3334 10.0423 19.0293 14.2434C22.8365 15.8904 25.5083 19.6846 25.5083 24.0896C25.5083 25.6983 25.1423 27.2703 24.4617 28.6968C25.4421 29.2092 26.3458 29.8715 27.1335 30.6662C29.1535 32.7001 30.3011 35.5122 30.2794 38.3792L30.2776 38.4376L30.2759 38.4873L30.2044 39.8441H39.9199L40.0001 29.0994C40.0166 26.9078 39.1583 24.8059 37.6124 23.2504Z" fill="black"/>
<path d="M20.2031 30.1146C21.8527 28.6306 22.8975 26.486 22.8975 24.0914C22.8975 19.6105 19.2654 15.9793 14.7854 15.9793C10.3046 15.9793 6.67338 19.6105 6.67338 24.0914C6.67338 26.4817 7.71386 28.6245 9.36085 30.1094C5.14317 30.4362 1.81172 33.9289 1.78122 38.2293L1.70105 39.8441H14.0343H27.5875L27.6677 38.3504C27.6834 36.1597 26.8241 34.0578 25.2791 32.5023C23.9145 31.1264 22.1141 30.2915 20.2031 30.1146Z" fill="black"/>
<path d="M5.23202 9.91157V12.9249C5.23202 14.1728 6.24635 15.1863 7.4951 15.1863C8.74559 15.1863 9.75818 14.1728 9.75818 12.9249V9.91157H12.7681C14.0168 9.91157 15.0303 8.89724 15.0303 7.64849C15.0303 6.40061 14.0168 5.38628 12.7681 5.38628H9.75818V2.41735C9.75818 1.1686 8.74559 0.156006 7.4951 0.156006C6.24635 0.156006 5.23202 1.1686 5.23202 2.41735V5.38541H2.26221C1.01172 5.38541 0 6.39974 0 7.64762C0 8.89637 1.01172 9.9107 2.26221 9.9107L5.23202 9.91157Z" fill="black"/>
</g>
<defs>
<clipPath id="clip0_22_10">
<rect width="40" height="40" fill="white"/>
</clipPath>
</defs>
</svg>
