<svg width="40" height="40" viewBox="0 0 40 40" fill="none" xmlns="http://www.w3.org/2000/svg">
<path d="M22.92 33.36L6.63996 17.08C6.45329 16.8934 6.36662 16.66 6.37996 16.38C6.39329 16.1 6.50662 15.88 6.71996 15.72C7.65329 15 8.69996 14.6734 9.85996 14.74C11.02 14.8067 12.0133 15.2534 12.84 16.08L23.92 27.12C24.7466 27.9734 25.2 28.98 25.28 30.14C25.36 31.3 25.0266 32.3467 24.28 33.28C24.12 33.4934 23.9066 33.6067 23.64 33.62C23.3733 33.6334 23.1333 33.5467 22.92 33.36ZM27.04 25.96L35.2 15.44L35.4 15.64C35.56 15.8267 35.7733 15.92 36.04 15.92C36.3066 15.92 36.5333 15.8267 36.72 15.64L37.44 14.92C37.6266 14.7334 37.72 14.5067 37.72 14.24C37.72 13.9734 37.6266 13.7467 37.44 13.56L26.44 2.56003C26.2533 2.37336 26.0266 2.28003 25.76 2.28003C25.4933 2.28003 25.2666 2.37336 25.08 2.56003L24.36 3.28003C24.1733 3.4667 24.08 3.69336 24.08 3.96003C24.08 4.2267 24.1733 4.44003 24.36 4.60003L24.56 4.80003L14.04 12.96C13.8 13.12 13.6733 13.3467 13.66 13.64C13.6466 13.9334 13.7333 14.1734 13.92 14.36L25.64 26.08C25.8266 26.2667 26.0666 26.3534 26.36 26.34C26.6533 26.3267 26.88 26.2 27.04 25.96ZM3.07996 36.92L3.87996 33.04L11.84 25.08L14.92 28.16L6.95996 36.12L3.07996 36.92Z" fill="black"/>
</svg>
