<svg width="32" height="32" viewBox="0 0 32 32" fill="none" xmlns="http://www.w3.org/2000/svg">
<path fill-rule="evenodd" clip-rule="evenodd" d="M16 11C13.2386 11 11 13.2386 11 16C11 18.7615 13.2386 21 16 21C18.7615 21 21 18.7615 21 16C21 13.2386 18.7615 11 16 11ZM13 16C13 14.3432 14.3432 13 16 13C17.6568 13 19 14.3432 19 16C19 17.6568 17.6568 19 16 19C14.3432 19 13 17.6568 13 16Z" fill="black"/>
<path fill-rule="evenodd" clip-rule="evenodd" d="M15.9663 1.66666C15.3737 1.66664 14.8789 1.66664 14.4728 1.69435C14.05 1.7232 13.6507 1.78539 13.2635 1.94576C12.365 2.31791 11.6512 3.03171 11.2791 3.93015C11.0854 4.39788 11.0329 4.89082 11.0128 5.4266C10.9967 5.85731 10.7794 6.21667 10.4586 6.40187C10.1378 6.58707 9.71793 6.59563 9.33688 6.39423C8.86285 6.14368 8.40972 5.94264 7.90777 5.87656C6.94364 5.74963 5.96856 6.01091 5.19705 6.60291C4.86457 6.85803 4.61102 7.17279 4.37465 7.52452C4.14757 7.8624 3.90022 8.29086 3.60392 8.80408L3.57025 8.8624C3.27393 9.37562 3.02657 9.80404 2.84749 10.1696C2.66108 10.5502 2.51525 10.9272 2.46054 11.3427C2.33361 12.3068 2.59489 13.2819 3.18688 14.0535C3.49504 14.4549 3.89564 14.7469 4.34956 15.0321C4.7146 15.2615 4.91717 15.6295 4.91714 16C4.91713 16.3704 4.71456 16.7384 4.34956 16.9677C3.89558 17.2529 3.49494 17.5449 3.18676 17.9465C2.59476 18.718 2.33349 19.6931 2.46041 20.6572C2.51512 21.0727 2.66094 21.4497 2.84736 21.8303C3.02644 22.1959 3.2738 22.6243 3.5701 23.1375L3.60378 23.1959C3.90009 23.7091 4.14744 24.1375 4.37452 24.4753C4.61089 24.8271 4.86444 25.1419 5.19692 25.3969C5.96842 25.9889 6.9435 26.2503 7.90764 26.1233C8.40956 26.0572 8.86266 25.8563 9.33666 25.6057C9.71777 25.4043 10.1377 25.4128 10.4585 25.5981C10.7794 25.7833 10.9967 26.1427 11.0128 26.5735C11.0329 27.1092 11.0854 27.6021 11.2791 28.0699C11.6512 28.9683 12.365 29.6821 13.2635 30.0543C13.6507 30.2147 14.05 30.2768 14.4728 30.3056C14.8789 30.3333 15.3737 30.3333 15.9663 30.3333H16.0336C16.6263 30.3333 17.1209 30.3333 17.5272 30.3056C17.95 30.2768 18.3493 30.2147 18.7365 30.0543C19.6349 29.6821 20.3488 28.9683 20.7209 28.0699C20.9147 27.6021 20.9671 27.1092 20.9871 26.5733C21.0032 26.1427 21.2205 25.7833 21.5413 25.598C21.8621 25.4128 22.2821 25.4043 22.6632 25.6056C23.1372 25.8561 23.5903 26.0572 24.0923 26.1232C25.0564 26.2501 26.0315 25.9889 26.8029 25.3969C27.1355 25.1417 27.3889 24.8271 27.6253 24.4753C27.8524 24.1375 28.0997 23.7091 28.396 23.1959L28.4297 23.1375C28.726 22.6243 28.9735 22.1957 29.1525 21.8301C29.3389 21.4496 29.4847 21.0727 29.5395 20.6572C29.6664 19.6929 29.4051 18.7179 28.8131 17.9464C28.5049 17.5448 28.1043 17.2529 27.6504 16.9677C27.2853 16.7384 27.0828 16.3704 27.0828 15.9999C27.0828 15.6295 27.2853 15.2616 27.6503 15.0323C28.1044 14.7471 28.5051 14.4552 28.8132 14.0535C29.4052 13.282 29.6665 12.3069 29.5396 11.3428C29.4848 10.9273 29.3391 10.5503 29.1527 10.1697C28.9736 9.80416 28.7263 9.37576 28.4299 8.86259L28.3963 8.80423C28.0999 8.29099 27.8525 7.8625 27.6255 7.52462C27.3891 7.17288 27.1356 6.85812 26.8031 6.60299C26.0316 6.011 25.0565 5.74972 24.0923 5.87666C23.5904 5.94274 23.1373 6.14375 22.6633 6.39428C22.2823 6.59571 21.8623 6.58714 21.5415 6.40191C21.2207 6.2167 21.0032 5.85728 20.9871 5.42654C20.9671 4.89076 20.9147 4.39786 20.7209 3.93015C20.3488 3.03171 19.6349 2.31791 18.7365 1.94576C18.3493 1.78539 17.95 1.7232 17.5272 1.69435C17.1209 1.66664 16.6263 1.66664 16.0336 1.66666H15.9663ZM14.0288 3.79352C14.1317 3.75091 14.288 3.71162 14.6089 3.68971C14.9389 3.6672 15.3651 3.66666 16 3.66666C16.6349 3.66666 17.0611 3.6672 17.3909 3.68971C17.712 3.71162 17.8683 3.75091 17.9711 3.79352C18.3795 3.96268 18.704 4.28714 18.8731 4.69552C18.9265 4.82434 18.9707 5.02515 18.9885 5.50128C19.028 6.55779 19.5733 7.57504 20.5415 8.13396C21.5095 8.6929 22.6632 8.65652 23.5979 8.1625C24.0191 7.93986 24.2152 7.87775 24.3533 7.85955C24.7916 7.80186 25.2348 7.92062 25.5855 8.1897C25.6739 8.25748 25.786 8.37318 25.9655 8.6402C26.15 8.9147 26.3635 9.28346 26.6809 9.83332C26.9984 10.3832 27.2111 10.7525 27.3565 11.0495C27.498 11.3384 27.5421 11.4934 27.5567 11.6038C27.6144 12.0421 27.4956 12.4853 27.2265 12.836C27.1416 12.9466 26.9899 13.0853 26.5863 13.3388C25.6912 13.9013 25.0829 14.8821 25.0828 15.9999C25.0828 17.1177 25.6911 18.0987 26.5863 18.6612C26.9897 18.9147 27.1415 19.0533 27.2264 19.164C27.4955 19.5147 27.6143 19.9579 27.5565 20.3961C27.542 20.5065 27.4979 20.6615 27.3564 20.9504C27.2109 21.2473 26.9983 21.6167 26.6808 22.1665C26.3633 22.7164 26.1499 23.0852 25.9653 23.3597C25.7859 23.6267 25.6737 23.7424 25.5853 23.8101C25.2347 24.0793 24.7915 24.198 24.3532 24.1404C24.2151 24.1221 24.0189 24.06 23.5977 23.8375C22.6631 23.3433 21.5093 23.3071 20.5412 23.866C19.5733 24.4249 19.028 25.4421 18.9885 26.4987C18.9707 26.9748 18.9265 27.1756 18.8731 27.3045C18.704 27.7128 18.3795 28.0373 17.9711 28.2065C17.8683 28.2491 17.712 28.2884 17.3909 28.3103C17.0611 28.3328 16.6349 28.3333 16 28.3333C15.3651 28.3333 14.9389 28.3328 14.6089 28.3103C14.288 28.2884 14.1317 28.2491 14.0288 28.2065C13.6205 28.0373 13.296 27.7128 13.1268 27.3045C13.0735 27.1756 13.0293 26.9748 13.0114 26.4987C12.9719 25.4423 12.4266 24.4249 11.4585 23.866C10.4904 23.3071 9.33682 23.3435 8.4021 23.8375C7.98086 24.0601 7.78484 24.1223 7.6466 24.1404C7.20834 24.1981 6.76513 24.0793 6.41445 23.8103C6.3261 23.7425 6.21393 23.6268 6.03448 23.3597C5.85001 23.0853 5.63648 22.7165 5.31901 22.1667C5.00153 21.6168 4.78894 21.2475 4.64346 20.9505C4.50194 20.6616 4.45784 20.5065 4.4433 20.3961C4.38561 19.9579 4.50437 19.5147 4.77346 19.164C4.85834 19.0535 5.01014 18.9147 5.4136 18.6612C6.30877 18.0988 6.91709 17.1179 6.91714 16.0001C6.91721 14.8821 6.30886 13.9012 5.41361 13.3387C5.01025 13.0852 4.85846 12.9465 4.77358 12.8359C4.5045 12.4852 4.38574 12.042 4.44344 11.6037C4.45797 11.4933 4.50208 11.3383 4.6436 11.0494C4.78908 10.7524 5.00166 10.3831 5.31913 9.83323C5.63661 9.28336 5.85013 8.9146 6.03461 8.64011C6.21406 8.3731 6.32624 8.25739 6.41457 8.18962C6.76526 7.92052 7.20848 7.80176 7.64672 7.85946C7.78497 7.87766 7.98101 7.93976 8.4023 8.16244C9.33697 8.65646 10.4905 8.69282 11.4586 8.13392C12.4266 7.57503 12.9719 6.55782 13.0114 5.50135C13.0293 5.02518 13.0735 4.82435 13.1268 4.69552C13.296 4.28714 13.6205 3.96268 14.0288 3.79352Z" fill="black"/>
</svg>
